<?xml version="1.0"?>
<svg width="640" height="480" xmlns="http://www.w3.org/2000/svg" xmlns:xlink="http://www.w3.org/1999/xlink">
 <!-- Created with SVG-edit - http://svg-edit.googlecode.com/ -->
 <g>
  <title>Layer 1</title>
  <g id="svg_23" transform="rotate(38.93967056274414 27.820095062255906,106.07731628417967) ">
   <defs>
    <filter id="svg_9" x="-0.09256" width="1.18513" y="-0.17055" height="1.3411">
     <feGaussianBlur stdDeviation="8.98418" id="svg_22"/>
    </filter>
    <linearGradient id="svg_17">
     <stop offset="0" id="svg_21" stop-color="#f4e86c"/>
     <stop id="svg_20" offset="0.66028" stop-color="#f4e86c"/>
     <stop id="svg_19" offset="0.83673" stop-color="#d8b436"/>
     <stop offset="1" id="svg_18" stop-color="#bc8000"/>
    </linearGradient>
    <radialGradient xlink:href="#svg_17" id="svg_7" cx="260.4259" cy="619.104" fx="260.4259" fy="619.104" r="113.96875" gradientTransform="matrix(-7.214104e-8,0.7041724,-1.2242583,-1.2542279e-7,1198.8003,112.87342)" gradientUnits="userSpaceOnUse"/>
    <linearGradient id="svg_14">
     <stop offset="0" id="svg_16" stop-color="#f0e464"/>
     <stop offset="1" id="svg_15" stop-color="#d4a41c"/>
    </linearGradient>
    <radialGradient xlink:href="#svg_14" id="svg_5" cx="248.68613" cy="509.16125" fx="248.68613" fy="509.16125" r="96.875" gradientTransform="matrix(1.6435868,1.3104632e-6,-4.4900502e-8,0.6589712,36.119923,-92.319452)" gradientUnits="userSpaceOnUse"/>
    <linearGradient id="svg_11">
     <stop offset="0" id="svg_13" stop-color="#fcfc80"/>
     <stop offset="1" id="svg_12" stop-color="#ecd450"/>
    </linearGradient>
    <linearGradient xlink:href="#svg_11" id="svg_3" x1="2.036706" y1="2.351673" x2="2.036706" y2="2.351673"/>
   </defs>
   <metadata transform="translate(4,0) translate(-33,-23) translate(7,-60) " id="svg_10">image/svg+xml</metadata>
   <g id="svg_1">
    <path d="m106.171814,56.39682a67.915527,35.120369 0 1 1-135.831074,0a67.915527,35.120369 0 1 1135.831074,0z" id="svg_8" filter="url(#svg_9)" stroke-dashoffset="0" stroke-miterlimit="4" marker-mid="none" marker-start="none" stroke-width="5" stroke="#000000" fill-rule="evenodd" fill="none"/>
    <path id="svg_6" d="m15.680199,2.269997c-30.972738,4.4888 -53.799999,19.545006 -53.799999,37.460007l0,12.799995c0,21.449005 32.6765,38.860001 72.939999,38.860001c40.263405,0 72.939796,-17.410995 72.939796,-38.860001l0,-12.799995c0,-17.926003 -22.856995,-32.981804 -53.859795,-37.460007c1.7071,0.296906 3.4011,0.607605 5.040001,0.980003c1.854202,0.421303 3.663002,0.887299 5.419998,1.400002c1.756905,0.512596 3.470604,1.081596 5.120003,1.68c1.6493,0.598396 3.228699,1.241402 4.759995,1.919998c1.531204,0.678596 3.017204,1.386803 4.419807,2.139999c1.403,0.753098 2.736,1.537804 4,2.360001c1.264,0.822098 2.445999,1.6744 3.559998,2.559998c1.114998,0.885506 2.165001,1.817001 3.119995,2.760002c0.955002,0.943001 1.815002,1.903999 2.600006,2.900002c0.784996,0.994995 1.475998,2.017998 2.079994,3.059998c0.604004,1.042 1.127007,2.117004 1.540001,3.200005c0.413002,1.083 0.728004,2.181 0.940002,3.299995c0.211998,1.119003 0.32,2.251999 0.32,3.400002c0,1.148003 -0.108002,2.280998 -0.32,3.400002c-0.211998,1.118996 -0.527,2.216995 -0.940002,3.299995c-0.412994,1.083 -0.935997,2.158005 -1.540001,3.200005c-0.603996,1.042 -1.294998,2.043991 -2.079994,3.039993c-0.361,0.458008 -0.802002,0.893005 -1.200005,1.340012c-6.314995,11.244995 -28.951698,19.579987 -55.9198,19.579987c-26.968098,0 -49.604527,-8.334991 -55.919998,-19.579987c-0.397629,-0.447006 -0.838989,-0.882004 -1.20001,-1.340012c-0.7847,-0.996002 -1.49585,-1.997993 -2.099989,-3.039993c-0.604141,-1.042 -1.10684,-2.117004 -1.52,-3.200005c-0.413181,-1.083 -0.728201,-2.181 -0.940001,-3.299995c-0.21179,-1.119003 -0.31999,-2.251999 -0.31999,-3.400002c0,-1.148003 0.1082,-2.280998 0.31999,-3.400002c0.211809,-1.118996 0.526819,-2.216995 0.940001,-3.299995c0.41316,-1.083 0.915859,-2.158005 1.52,-3.200005c0.604139,-1.042 1.315289,-2.065002 2.099989,-3.059998c0.7847,-0.996002 1.645161,-1.957001 2.60001,-2.900002c0.954821,-0.943001 2.00543,-1.874496 3.120001,-2.760002c1.114559,-0.885597 2.296139,-1.7379 3.560009,-2.559998c1.263889,-0.822197 2.597191,-1.606903 3.99999,-2.360001c1.4027,-0.753197 2.868799,-1.461403 4.4,-2.139999c1.5312,-0.678596 3.130701,-1.321602 4.780001,-1.919998c1.6493,-0.598404 3.363001,-1.167404 5.120001,-1.68c1.756901,-0.512703 3.5658,-0.978699 5.419998,-1.400002c1.625603,-0.3694 3.287201,-0.684898 4.98,-0.980003l0,0z" stroke-dashoffset="0" stroke-miterlimit="4" marker-mid="none" marker-start="none" stroke-width="5" fill-rule="evenodd" fill="url(#svg_7)"/>
    <path id="svg_4" d="m15.680199,2.269997c-1.692799,0.295105 -3.3545,0.610603 -4.98,0.980003c-1.854298,0.421303 -3.663097,0.887299 -5.419998,1.400002c-1.757,0.512596 -3.470701,1.081596 -5.120001,1.68c-1.6493,0.598396 -3.2488,1.241402 -4.780001,1.919998c-1.5313,0.678596 -2.997299,1.386803 -4.4,2.139999c-1.4028,0.753098 -2.7362,1.537804 -4.000021,2.360001c-1.26387,0.822098 -2.44545,1.6744 -3.560009,2.559998c-1.114559,0.885506 -2.16518,1.817001 -3.120001,2.760002c-0.954849,0.943001 -1.81531,1.903999 -2.60001,2.900002c-0.784698,0.994995 -1.49585,2.017998 -2.099989,3.059998c-0.604139,1.042 -1.10684,2.117004 -1.52,3.200005c-0.413179,1.083 -0.728199,2.181 -0.940001,3.299995c-0.21179,1.119003 -0.31999,2.251999 -0.31999,3.400002c0,1.148003 0.1082,2.280998 0.31999,3.400002c0.211811,1.118996 0.526821,2.216995 0.940001,3.299995c0.41316,1.083 0.915861,2.158005 1.52,3.200005c0.604139,1.042 1.31529,2.043991 2.099989,3.039993c0.361021,0.458008 0.802382,0.893005 1.20001,1.340012c-0.385929,-0.687012 -0.738939,-1.372009 -1,-2.080002c4.533522,-12.290009 28.303928,-21.660004 56.91993,-21.660004c28.616104,0 52.386902,9.369995 56.919899,21.660004c-0.261002,0.707993 -0.613998,1.39299 -1,2.080002c0.398003,-0.447006 0.839005,-0.882004 1.200005,-1.340012c0.784996,-0.996002 1.475998,-1.997993 2.079994,-3.039993c0.604004,-1.042 1.127007,-2.117004 1.540001,-3.200005c0.413002,-1.083 0.728004,-2.181 0.940002,-3.299995c0.211998,-1.119003 0.32,-2.251999 0.32,-3.400002c0,-1.148003 -0.108002,-2.280998 -0.32,-3.400002c-0.211998,-1.118996 -0.527,-2.216995 -0.940002,-3.299995c-0.412994,-1.083 -0.935997,-2.158005 -1.540001,-3.200005c-0.603996,-1.042 -1.294998,-2.065002 -2.079994,-3.059998c-0.785004,-0.996002 -1.645004,-1.957001 -2.600006,-2.900002c-0.954994,-0.943001 -2.004997,-1.874496 -3.119995,-2.760002c-1.113998,-0.885597 -2.295998,-1.7379 -3.559998,-2.559998c-1.264,-0.822197 -2.597,-1.606903 -4,-2.360001c-1.402603,-0.753197 -2.888603,-1.461403 -4.419807,-2.139999c-1.531296,-0.678596 -3.110695,-1.321602 -4.760094,-1.919998c-1.6493,-0.598404 -3.362999,-1.167404 -5.120003,-1.68c-1.756897,-0.512703 -3.565804,-0.978699 -5.419998,-1.400002c-1.638901,-0.372398 -3.332802,-0.683098 -5.040001,-0.980003c-6.092102,-0.879997 -12.4674,-1.399994 -19.080002,-1.399994c-6.633698,0 -13.0303,0.514496 -19.139999,1.399994l0.000099,0z" stroke-dashoffset="0" stroke-miterlimit="4" marker-mid="none" marker-start="none" stroke-width="5" fill-rule="evenodd" fill="url(#svg_5)"/>
    <path id="svg_2" d="m96.818451,33.926102a62.000641,33.288658 0 1 1-124.001282,0a62.000641,33.288658 0 1 1124.001282,0z" stroke-dashoffset="0" stroke-miterlimit="4" marker-mid="none" marker-start="none" stroke-width="5" stroke="url(#svg_3)" fill-rule="evenodd" fill="none"/>
   </g>
  </g>
 </g>
</svg>