<svg width="640" height="480" xmlns="http://www.w3.org/2000/svg" xmlns:xlink="http://www.w3.org/1999/xlink">
 <!-- Created with SVG-edit - http://svg-edit.googlecode.com/ -->
 <defs>
  <svg id="svg_3" viewBox="0 0 8267.72 8267.72" height="8.26772in" width="8.26772in">
   <g id="Symbol-Rahmen">
    <path d="m716.815002,4324.259766c731.304993,313.610352 827.705017,357.490234 1567.785095,675.180176c40.47998,17.970215 72.399902,31.790039 101.48999,46.120117c50.76001,27.560059 77.339844,53.459961 127.280029,-15.280273c16.879883,-17.109863 46.269775,-32.859863 65.599854,-65.449707c1771.250244,-1641.560059 3104.170166,-2926.090088 4875.429932,-4567.664093c311.450195,-314.038582 957.140137,-82.314972 668.75,262.425018c-1819.040039,2115.068909 -3013.899902,3557.109192 -3898.310059,4727.138977c-378.149902,498.870117 -701.189941,948.439941 -991.489746,1378.669922c-190.680176,277.300293 -364.940186,546.580078 -526.530029,815.859863c-46.830078,81.5 -85.949951,138.830078 -146.800049,184.870117c-95.27002,67.850098 -199.810059,75.200195 -302.620117,18.470215c-38.549805,-25.290039 -76.039795,-57.030273 -113.859863,-103.760254c-22.689941,-28.029785 -45.51001,-64.330078 -68.73999,-99.849609l-553.400024,-911.480469l-623.116028,-1098.319824c-170.562988,-300.640137 -307.26001,-550.25 -571.626007,-1007.629883c-28.92099,-43.069824 -111.645996,-155.140137 -87.534988,-238.720215c20.748001,-95.459961 124.861984,-147.429688 234.972,-102.709961c98.806976,41.680176 197.582977,84.97998 242.720001,102.129883l0,0z" class="fil0"/>
   </g>
   <g id="Symbol">
    <path d="m431.484009,4322.720215c694.725952,300.719727 1260.06604,541.859863 1963.126099,846.5c48.5,21.169922 97.639893,26.929688 146.549805,-15.720215c1682.650146,-1574.129883 3327.349854,-3117.849976 5010.01001,-4691.984009c220.550293,-198.940979 645.360352,-76.924988 509.089844,107.457031c-2981.109863,3437.647095 -4547.939697,5449.026978 -5497.559814,7037.337036c-86.320068,145.089844 -250.189941,136.879883 -339.060059,-2.280273c-209.349854,-332.539551 -525.429932,-854.159668 -534.059937,-867.239746c-673.509949,-1175.640137 -694.990967,-1224.560059 -1337.912964,-2347.390137c-30.346985,-55.040039 35.429016,-95.299805 79.819,-66.679688l-0.001984,0z" class="fil1"/>
   </g>
  </svg>
 </defs>
 <g>
  <title>Layer 1</title>
  <path id="svg_1" stroke-width="5" stroke="#000000" fill="#00bf5f"/>
  <path id="svg_2" stroke-linecap="null" stroke-linejoin="null" stroke-width="5" stroke="#000000" fill="#00bf5f"/>
  <use fill="#00bf5f" x="4049.498761" y="4070.665981" transform="matrix(0.025690558752510476,0,0,0.024708657085153116,-104.15837216710648,-100.61808025193373) " id="svg_4" xlink:href="#svg_3"/>
 </g>
</svg>